<?xml version="1.0" encoding="iso-8859-1"?>
<!-- Generator: Adobe Illustrator 19.0.0, SVG Export Plug-In . SVG Version: 6.00 Build 0)  -->
<svg version="1.1" id="Capa_1" xmlns="http://www.w3.org/2000/svg" xmlns:xlink="http://www.w3.org/1999/xlink" x="0px" y="0px"
	 viewBox="0 0 512 512" style="enable-background:new 0 0 512 512;" xml:space="preserve">
<circle style="fill:#F1592F;" cx="256" cy="256" r="256"/>
<path style="fill:#E8E7E8;" d="M164.268,390.688c-1.744,4.168-2.528,8.392-3.444,12.912c-1.168,5.704-5.524,10.24-7.388,15.72
	c-3.56,10.432-2.04,21.352-0.324,31.988h-35.296c0.28-3.428-1.464-6.752-5.956-7.46c-0.604-0.072-1.212-0.176-1.816-0.296
	c0.4-0.236,0.4-1.004-0.016-2.364c0.088-3.104-0.324-6.116-0.96-9.144c-1.212-5.704,0.132-10.86-2.44-16.356
	c-2.008-4.3-5.968-4.992-9.336-3.604v-17.76c1.64-0.888,3.104-1.728,4.344-2.512c0.812-0.504,1.508-0.976,2.112-1.432
	c0.56-0.428,1.092-0.872,1.58-1.344c1.952-1.788,3.324-3.784,4.284-5.82c3.636-7.728,1.124-15.896,1.124-15.896h46.112
	c0,0-2.364,7.652,0.812,15.172c0.652,1.552,1.536,3.088,2.732,4.564c0.944,1.168,2.084,2.292,3.444,3.324
	C163.976,390.48,164.136,390.584,164.268,390.688z"/>
<path style="fill:#F0B97C;" d="M153.712,403.496c1.956-2.096,4.896-2.764,7.58-2.18c0.752-3.668,1.532-7.172,2.984-10.632
	c-0.144-0.104-0.3-0.204-0.432-0.308c-1.36-1.036-2.496-2.156-3.444-3.324c-1.196-1.476-2.084-3.016-2.732-4.564
	c-3.176-7.52-0.812-15.172-0.812-15.172H110.74c0,0,2.512,8.172-1.124,15.896c-0.96,2.04-2.336,4.032-4.284,5.82
	c-0.488,0.472-1.02,0.916-1.58,1.344c-0.604,0.456-1.3,0.932-2.112,1.432c-1.236,0.784-2.704,1.632-4.336,2.516v7.872
	c4.608-7.1,12.556-10.292,16.64-2.916c4.152-2.132,9.592-1.26,10.908,4.144c0.904-0.1,1.872-0.06,2.9,0.164
	c2.248,0.492,5.808,3,8.056,2.384c3.524-0.968,6.756-2.692,10.276-3.676c3.032-0.848,5.54-0.048,7.316,1.564
	C153.504,403.74,153.6,403.612,153.712,403.496z"/>
<g>
	<path style="fill:#4D535F;" d="M113.436,442.2c-0.008-1.648-0.316-6.428-0.052-7.9c-0.424-1.228-0.604-4.64-0.624-5.952h-2.16
		v-5.568c-2.136-2.08-2.536-4.184-2.508-6.844c-1.472-1.588-2.684-3.696-3.044-5.716c-0.136-0.76-0.216-1.496-0.224-2.216
		c-1.512-1.696-2.792-5.636-3.096-7.544c-1.336-2.092-1.66-5.396-1.408-7.856c-2.064,1.232-4.568,2.584-7.416,3.988
		c-9.648,4.832-22.888,10.432-33.48,14.732c-10.684,4.344-17.656,14.7-17.656,26.224v13.756h77.324v-1.296
		C115.836,448.908,113.456,445.796,113.436,442.2z"/>
	<path style="fill:#4D535F;" d="M154.344,435.736c0.004-0.488-0.048-0.968-0.132-1.436c0.424-1.228,0.604-4.64,0.624-5.952h2.16
		v-5.568c1.548-1.504,2.52-3.596,2.52-5.884c0-0.32-0.012-0.64-0.016-0.96c2.256-2.432,3.232-5.064,3.268-7.932
		c1.512-1.696,2.792-5.636,3.096-7.544c1.336-2.092,1.66-5.396,1.408-7.856c2.064,1.232,4.568,2.584,7.416,3.988
		c9.648,4.832,22.888,10.432,33.48,14.732c10.684,4.344,17.656,14.7,17.656,26.224v13.756h-77.328v-1.296
		C154.652,447.932,154.304,442.184,154.344,435.736z"/>
</g>
<polygon style="fill:#5F87C4;" points="148.372,451.308 117.908,451.308 127.08,415.552 137.644,415.552 "/>
<path style="fill:#70B1E1;" d="M127.968,422.748c0,0-12.792-2.54-4.752-21.156l9.728-6.136l7.62,3.068l5.5,9.416
	c0,0-3.628,16.028-12.268,14.808L127.968,422.748L127.968,422.748z"/>
<g>
	<path style="fill:#F7CFA3;" d="M94.808,333.008c0,28,16.828,50.7,37.584,50.7s37.584-22.7,37.584-50.7l-4.28-23.348
		c0,0-9.116-7.072-10.42-8.372c-1.304-1.304-14.14-4.28-14.14-4.28l-28.704,1.86L101.88,307.8l-3.536,13.208L94.808,333.008z"/>
	
		<ellipse transform="matrix(-0.3531 -0.9356 0.9356 -0.3531 -189.7576 554.9835)" style="fill:#F7CFA3;" cx="96.991" cy="343.095" rx="12.864" ry="5.952"/>
	
		<ellipse transform="matrix(-0.3531 0.9356 -0.9356 -0.3531 549.4898 306.1569)" style="fill:#F7CFA3;" cx="168.9" cy="343.049" rx="12.864" ry="5.952"/>
</g>
<g>
	<path style="fill:#FDFEFF;" d="M132.948,395.46l-14.804,21.572l-16.504-25.22c0.812-0.504,1.508-0.976,2.112-1.432
		c2.824-2.144,4.668-4.624,5.864-7.168L132.948,395.46z"/>
	<path style="fill:#FDFEFF;" d="M164.772,391.04l-17.008,25.988l-14.82-21.572l24.72-12.972c1.168,2.776,3.088,5.54,6.176,7.888
		C164.124,390.596,164.432,390.82,164.772,391.04z"/>
</g>
<g>
	<path style="fill:#656D7A;" d="M125.132,451.308h-18.808l-12.516-23.476l12.056-9.308L91.268,420l1.64-23.404
		c3.472-1.712,6.472-3.352,8.732-4.788c0.812-0.504,1.508-0.976,2.112-1.432c0.56-0.428,1.092-0.872,1.58-1.344L125.132,451.308z"/>
	<path style="fill:#656D7A;" d="M159.248,418.524l12.056,9.308l-12.516,23.476H139.98l20.42-64.256
		c0.944,1.168,2.084,2.292,3.444,3.324c0.28,0.22,0.592,0.444,0.932,0.664c1.832,1.256,4.36,2.704,7.344,4.256L173.844,420
		L159.248,418.524z"/>
	<path style="fill:#656D7A;" d="M153.796,305.828c0,0,16.708,2.492,10.188,34.528h4.756c0,0,9.236-22.576,1.36-36.568
		L153.796,305.828z"/>
</g>
<path style="fill:#4D535F;" d="M173.732,303.648c0,0-24.144,29.928-69.448,6.284c0,0-10.088,5.624-3.804,30.424h-5.788
	c0,0-7.004-25.452-0.44-35.788c0,0-4.536-4.996-2.808-10.092c0,0,2.368,4.8,5.696,5.976c0,0-6.516-7.152-1.176-14.548
	c0,0,0.096,7.348,4.652,9.356C100.62,295.264,137.224,257.736,173.732,303.648z"/>
<g>
	<path style="fill:#FDFEFF;" d="M126.552,333.928c-0.568,4.232-4.248,12.288-13.132,12.288h-2.604c-4.472,0-8.228-2.984-8.876-8.536
		v-6.568c0,0-0.192-6.024,7.88-5.676h8.156c0,0,7.376,0.732,8.576,4.828L126.552,333.928L126.552,333.928z"/>
	<path style="fill:#FDFEFF;" d="M162.636,331.108v6.568c-0.644,5.532-4.384,8.536-8.876,8.536h-2.604
		c-7.564,0-12.324-6.288-13.132-12.288v-3.668c1.2-4.096,8.58-4.828,8.58-4.828h8.152
		C162.832,325.08,162.636,331.108,162.636,331.108z"/>
</g>
<path style="fill:#353944;" d="M142.288,324.456c-6.512,1.688-13.712,1.672-20.164,0c-12.864-3.328-30.208,1.22-30.208,1.22
	l0.488,3.508c1.656-0.156,2.924,0.056,3.868,0.396c1.416,0.512,2.396,1.82,2.496,3.324l0.22,3.3
	c0.86,11.844,10.528,11.408,10.528,11.408h5.536c9.076,0,13.456-8.604,14.096-12.832c0.552-3.62,3.064-3.836,3.064-3.836
	s2.512,0.22,3.06,3.836c0.636,4.172,4.944,12.832,14.44,12.832h5.192c0,0,9.668,0.436,10.532-11.408l0.22-3.3
	c0.1-1.504,1.072-2.812,2.492-3.324c0.948-0.34,2.208-0.552,3.872-0.396l0.636-3.508
	C172.648,325.676,155.148,321.128,142.288,324.456z M126.552,333.928c-0.568,4.232-4.248,12.288-13.132,12.288h-2.604
	c-4.472,0-8.228-2.984-8.876-8.536v-6.568c0,0-0.192-6.024,7.88-5.676h8.156c0,0,7.376,0.732,8.576,4.828L126.552,333.928
	L126.552,333.928z M162.636,331.108v6.568c-0.644,5.532-4.384,8.536-8.876,8.536h-2.604c-7.564,0-12.324-6.288-13.132-12.288v-3.668
	c1.2-4.096,8.58-4.828,8.58-4.828h8.152C162.832,325.08,162.636,331.108,162.636,331.108z"/>
<path style="fill:#F0B97C;" d="M139.48,368.424h-14.172c-1.448,0-2.62-1.172-2.62-2.62l0,0c0-1.448,1.172-2.62,2.62-2.62h14.172
	c1.448,0,2.62,1.172,2.62,2.62l0,0C142.1,367.252,140.928,368.424,139.48,368.424z"/>
<ellipse style="fill:#DA8D27;" cx="388.36" cy="364.8" rx="40.44" ry="69.736"/>
<path style="fill:#E8E7E8;" d="M417.008,391.012c-1.732,4.144-2.512,8.348-3.424,12.844c-1.16,5.672-5.496,10.184-7.348,15.636
	c-3.54,10.376-2.028,21.236-0.324,31.816h-35.108c0.28-3.408-1.456-6.716-5.924-7.42c-0.604-0.072-1.204-0.176-1.808-0.292
	c0.396-0.236,0.396-1-0.016-2.352c0.088-3.084-0.324-6.084-0.956-9.096c-1.204-5.672,0.132-10.8-2.424-16.268
	c-2-4.276-5.936-4.968-9.288-3.584v-17.664c1.632-0.88,3.088-1.72,4.32-2.5c0.808-0.5,1.5-0.968,2.1-1.424
	c0.56-0.428,1.088-0.868,1.572-1.336c1.94-1.78,3.308-3.76,4.26-5.792c3.616-7.684,1.116-15.812,1.116-15.812h45.864
	c0,0-2.352,7.612,0.808,15.092c0.648,1.544,1.528,3.072,2.72,4.54c0.94,1.16,2.072,2.276,3.424,3.308
	C416.716,390.808,416.876,390.908,417.008,391.012z"/>
<path style="fill:#F0B97C;" d="M406.508,403.752c1.944-2.088,4.872-2.748,7.536-2.168c0.748-3.652,1.524-7.132,2.968-10.572
	c-0.144-0.104-0.3-0.204-0.428-0.308c-1.352-1.028-2.484-2.144-3.424-3.308c-1.192-1.468-2.072-2.996-2.72-4.54
	c-3.16-7.48-0.808-15.092-0.808-15.092h-45.868c0,0,2.5,8.128-1.116,15.812c-0.956,2.028-2.32,4.012-4.26,5.792
	c-0.484,0.472-1.016,0.912-1.572,1.336c-0.604,0.456-1.292,0.924-2.1,1.424c-1.228,0.78-2.692,1.62-4.312,2.5v7.832
	c4.584-7.06,12.488-10.236,16.548-2.9c4.128-2.12,9.54-1.252,10.852,4.124c0.9-0.1,1.86-0.06,2.884,0.164
	c2.236,0.488,5.776,2.984,8.012,2.372c3.508-0.96,6.72-2.68,10.224-3.656c3.016-0.84,5.512-0.048,7.276,1.556
	C406.3,403.996,406.396,403.872,406.508,403.752z"/>
<g>
	<path style="fill:#4D535F;" d="M366.448,442.248c-0.008-1.64-0.316-6.396-0.052-7.856c-0.424-1.22-0.6-4.612-0.62-5.92h-2.148
		v-5.536c-2.124-2.068-2.524-4.164-2.492-6.804c-2.244-2.416-3.216-5.036-3.248-7.888c-1.504-1.684-2.776-5.608-3.08-7.504
		c-1.328-2.08-1.652-5.368-1.4-7.812c-2.056,1.228-4.544,2.568-7.376,3.968c-9.596,4.804-22.764,10.376-33.3,14.652
		c-10.624,4.32-17.56,14.624-17.56,26.084v13.68h76.908v-1.288C368.832,448.924,366.468,445.824,366.448,442.248z"/>
	<path style="fill:#4D535F;" d="M407.132,435.82c0.004-0.488-0.048-0.96-0.132-1.428c0.424-1.22,0.6-4.612,0.62-5.92h2.148v-5.536
		c2.124-2.068,2.524-4.164,2.492-6.804c2.244-2.416,3.216-5.036,3.248-7.888c1.584-1.776,2.792-5.7,3.08-7.504
		c1.328-2.08,1.652-5.368,1.4-7.812c2.056,1.228,4.544,2.568,7.376,3.968c9.596,4.804,22.764,10.376,33.3,14.652
		c10.624,4.32,17.56,14.624,17.56,26.084v13.68H401.32v-1.288C407.44,447.948,407.096,442.232,407.132,435.82z"/>
</g>
<polygon style="fill:#5F87C4;" points="401.196,451.308 370.892,451.308 380.02,415.744 390.528,415.744 "/>
<path style="fill:#70B1E1;" d="M380.904,422.904c0,0-12.72-2.524-4.724-21.044l9.676-6.1l7.58,3.052l5.472,9.364
	c0,0-3.608,15.94-12.204,14.728H380.904z"/>
<g>
	<path style="fill:#F7CFA3;" d="M347.92,333.644c0,27.852,16.736,50.428,37.38,50.428s37.38-22.576,37.38-50.428l-4.256-23.224
		c0,0-9.068-7.032-10.364-8.328S394,297.836,394,297.836l-28.548,1.852l-10.496,8.884
		C350.108,326.672,347.92,333.644,347.92,333.644z"/>
	<path style="fill:#F7CFA3;" d="M355.636,341.564c2.496,6.612,2.036,12.908-1.02,14.06c-3.06,1.156-7.564-3.268-10.06-9.88
		C338.58,329.912,349.656,325.716,355.636,341.564z"/>
	<path style="fill:#F7CFA3;" d="M416.088,341.564c-2.496,6.612-2.036,12.908,1.02,14.06c3.06,1.156,7.564-3.268,10.06-9.88
		C433.144,329.912,422.068,325.716,416.088,341.564z"/>
</g>
<g>
	<path style="fill:#FDFEFF;" d="M385.852,395.76l-14.724,21.456l-16.416-25.084c0.808-0.5,1.5-0.968,2.1-1.424
		c2.808-2.132,4.644-4.6,5.836-7.128L385.852,395.76z"/>
	<path style="fill:#FDFEFF;" d="M417.508,391.364l-16.916,25.848l-14.74-21.456l24.584-12.904c1.16,2.764,3.072,5.512,6.144,7.848
		C416.86,390.924,417.168,391.144,417.508,391.364z"/>
</g>
<g>
	<path style="fill:#656D7A;" d="M378.08,451.308h-18.708l-12.448-23.352l11.992-9.26l-14.52,1.468l1.632-23.276
		c3.452-1.704,6.436-3.336,8.684-4.76c0.808-0.5,1.5-0.968,2.1-1.424c0.56-0.428,1.088-0.868,1.572-1.336L378.08,451.308z"/>
	<path style="fill:#656D7A;" d="M412.012,418.7l11.992,9.26l-12.448,23.352h-18.708l20.308-63.912
		c0.94,1.16,2.072,2.276,3.424,3.308c0.28,0.22,0.588,0.44,0.924,0.66c1.824,1.248,4.336,2.688,7.304,4.232l1.72,24.572
		L412.012,418.7z"/>
</g>
<g>
	<path style="fill:#FDFEFF;" d="M379.492,334.556c-0.556,4.136-4.18,12.22-13.06,12.22h-2.588c-4.448,0-8.184-2.968-8.828-8.492
		c0-5.568-1.512-12.584,7.84-12.18h8.112c0,0,7.336,0.728,8.528,4.8v3.652H379.492z"/>
	<path style="fill:#FDFEFF;" d="M415.384,338.288c-0.64,5.5-4.36,8.492-8.828,8.492h-2.592c-7.816,0-12.308-6.62-13.06-12.22v-3.648
		c1.192-4.072,8.532-4.8,8.532-4.8h8.108C416.56,325.72,415.384,331.972,415.384,338.288z"/>
</g>
<path style="fill:#353944;" d="M395.144,325.136c-6.48,1.68-13.64,1.66-20.056,0c-12.792-3.312-30.048,1.212-30.048,1.212
	l0.484,3.492c6.576-0.616,6.28,2.98,6.544,6.98c0.852,11.78,10.472,11.344,10.472,11.344h5.508c9.024,0,13.384-8.556,14.02-12.764
	c0.548-3.6,3.048-3.816,3.048-3.816s2.5,0.216,3.044,3.816c0.632,4.148,4.92,12.764,14.364,12.764h5.164
	c0,0,9.616,0.436,10.476-11.344c0.264-4,0.084-7.584,6.544-6.98l0.636-3.492C425.34,326.352,407.932,321.828,395.144,325.136z
	 M379.492,334.556c-0.556,4.136-4.18,12.22-13.06,12.22h-2.588c-4.448,0-8.184-2.968-8.828-8.492c0-5.568-1.512-12.584,7.84-12.18
	h8.112c0,0,7.336,0.728,8.528,4.8v3.652H379.492z M415.384,338.288c-0.64,5.5-4.36,8.492-8.828,8.492h-2.592
	c-7.816,0-12.308-6.62-13.06-12.22v-3.648c1.192-4.072,8.532-4.8,8.532-4.8h8.108C416.56,325.72,415.384,331.972,415.384,338.288z"
	/>
<path style="fill:#F0B97C;" d="M392.352,368.872h-14.096c-1.44,0-2.608-1.168-2.608-2.608l0,0c0-1.44,1.168-2.608,2.608-2.608
	h14.096c1.44,0,2.608,1.168,2.608,2.608l0,0C394.956,367.704,393.792,368.872,392.352,368.872z"/>
<path style="fill:#E8BB20;" d="M369.464,299.952c0,0,63.396,22.104,53.824,96.916c0,0,34.72-69.868-8.22-107.112
	c-11.812-10.244-24.532-8.944-30.164-8.78L369.464,299.952z"/>
<g>
	<path style="fill:#F5EA07;" d="M352.756,396.868c-5.472-6.256-42.856-111.028,32.144-115.892
		C370.16,305.484,344.444,335.66,352.756,396.868z"/>
	<circle style="fill:#F5EA07;" cx="260" cy="132.08" r="88.52"/>
</g>
<g>
	<path style="fill:#E8BB20;" d="M259.996,207.956c-41.832,0-75.868-34.032-75.868-75.868s34.036-75.868,75.868-75.868
		s75.868,34.032,75.868,75.868S301.828,207.956,259.996,207.956z M259.996,69.604c-34.456,0-62.488,28.032-62.488,62.488
		s28.032,62.488,62.488,62.488s62.488-28.032,62.488-62.488S294.452,69.604,259.996,69.604z"/>
	<path style="fill:#E8BB20;" d="M257.564,177.964v-8.08c-10.112-1.032-19.184-5.052-27.228-12.06l8.08-9.628
		c6.2,5.388,12.584,8.592,19.148,9.628v-21.472c-8.34-1.992-14.444-4.612-18.316-7.86s-5.816-8.06-5.816-14.444
		s2.232-11.6,6.696-15.664c4.464-4.056,10.276-6.268,17.432-6.64v-5.536h7.084v5.644c8.116,0.596,15.788,3.36,23.02,8.304
		l-7.196,10.184c-4.868-3.468-10.148-5.608-15.824-6.42v20.808h0.332c8.484,1.996,14.716,4.688,18.704,8.08
		c3.984,3.396,5.976,8.324,5.976,14.776c0,6.46-2.288,11.72-6.864,15.772c-4.576,4.064-10.624,6.272-18.148,6.644v7.968h-7.08
		V177.964z M249.76,106.528c-1.876,1.656-2.82,3.724-2.82,6.196s0.736,4.428,2.212,5.864c1.476,1.44,4.28,2.824,8.412,4.152v-19.148
		C254.248,103.888,251.644,104.864,249.76,106.528z M273.064,155.056c2.064-1.692,3.1-3.832,3.1-6.416
		c0-2.58-0.816-4.628-2.436-6.144c-1.62-1.512-4.648-2.932-9.076-4.26v19.92C268.188,157.792,270.996,156.756,273.064,155.056z"/>
</g>
<g>
	
		<rect x="164.326" y="222.11" transform="matrix(-0.8175 -0.5759 0.5759 -0.8175 165.7968 550.686)" style="fill:#FDFEFF;" width="11.621" height="53.936"/>
	<polygon style="fill:#FDFEFF;" points="194.164,236.564 196.292,211.944 173.824,222.236 	"/>
	
		<rect x="202.692" y="226.523" transform="matrix(0.8175 0.5759 -0.5759 0.8175 184.0178 -73.8181)" style="fill:#FDFEFF;" width="11.621" height="53.936"/>
	<polygon style="fill:#FDFEFF;" points="184.476,266.016 182.348,290.636 204.816,280.344 	"/>
	
		<rect x="346.905" y="222.814" transform="matrix(0.8353 -0.5498 0.5498 0.8353 -79.0926 234.9828)" style="fill:#FDFEFF;" width="11.5" height="53.376"/>
	<polygon style="fill:#FDFEFF;" points="329.292,236.364 327.956,211.944 349.86,222.828 	"/>
	
		<rect x="308.843" y="225.981" transform="matrix(-0.8353 0.5498 -0.5498 -0.8353 716.2884 290.7596)" style="fill:#FDFEFF;" width="11.5" height="53.376"/>
	<polygon style="fill:#FDFEFF;" points="337.952,265.8 339.288,290.22 317.384,279.336 	"/>
</g>
<g>
</g>
<g>
</g>
<g>
</g>
<g>
</g>
<g>
</g>
<g>
</g>
<g>
</g>
<g>
</g>
<g>
</g>
<g>
</g>
<g>
</g>
<g>
</g>
<g>
</g>
<g>
</g>
<g>
</g>
</svg>
